<svg width="17" height="12" viewBox="0 0 17 12" fill="none" xmlns="http://www.w3.org/2000/svg">
<path d="M16.6787 5.42537L11.6474 0.238282C11.3393 -0.0794273 10.8424 -0.0794273 10.5343 0.238282C10.2261 0.555991 10.2261 1.06822 10.5343 1.38592L14.226 5.18546H0.78614C0.352191 5.18546 0 5.54856 0 5.99595C0 6.44333 0.352191 6.80643 0.78614 6.80643H14.226L10.5343 10.6125C10.2261 10.9302 10.2261 11.4424 10.5343 11.7601C10.6852 11.9157 10.8865 12 11.0877 12C11.289 12 11.4902 11.9222 11.6412 11.7601L16.6725 6.57301C16.9869 6.2553 16.9869 5.73659 16.6787 5.42537Z" fill="white"/>
</svg>
