<svg width="123" height="20" viewBox="0 0 123 20" fill="none" xmlns="http://www.w3.org/2000/svg">
<path opacity="0.9" d="M10.5943 19.9949L24.5073 4.7467L19.3329 -1.75757e-05L5.41986 15.2482L10.5943 19.9949Z" fill="white"/>
<path opacity="0.8" d="M15.3211 14.8116L4.73389 5.09961L-0.000134741 10.288L10.5871 20L15.3211 14.8116Z" fill="white"/>
<path d="M33.0945 15.1793L33.9159 13.7081C34.8917 14.5106 35.9729 14.8062 37.0189 14.8062C38.4581 14.8062 39.2865 14.3135 39.2865 13.4266C39.2865 12.4974 38.3317 12.0961 36.8925 11.6949L36.2467 11.5119C34.3652 10.998 32.9541 10.2096 32.9541 8.3372C32.9541 6.24655 34.639 4.85278 37.1874 4.85278C38.6547 4.85278 39.9534 5.28921 41.0486 6.16912L40.0728 7.68959C39.2233 7.00678 38.3107 6.6689 37.2014 6.6689C35.9939 6.6689 35.2076 7.18276 35.2076 7.98524C35.2076 8.90033 36.1203 9.22414 37.2436 9.54794L37.9105 9.73096C39.6726 10.2096 41.54 11.174 41.54 13.2295C41.54 15.2567 39.7779 16.6224 37.1523 16.6224C35.5797 16.6224 34.1125 16.1226 33.0945 15.1793Z" fill="white"/>
<path d="M43.0986 5.51446C43.0986 4.78942 43.6252 4.26147 44.3483 4.26147C45.0714 4.26147 45.5838 4.78942 45.5838 5.51446C45.5838 6.2395 45.0714 6.75336 44.3483 6.75336C43.6252 6.75336 43.0986 6.24653 43.0986 5.51446ZM43.3022 8.11897H45.4013V16.4675H43.3022V8.11897Z" fill="white"/>
<path d="M52.1338 14.5317V16.2352C51.5019 16.4956 50.7437 16.6223 49.9996 16.6223C48.4832 16.6223 47.4512 15.5665 47.4512 13.9897V5.66931H49.5503V8.11896H52.0074V9.83653H49.5503V13.5532C49.5503 14.3135 50.0136 14.8062 50.6805 14.8062C51.179 14.8062 51.6564 14.7288 52.1338 14.5317Z" fill="white"/>
<path d="M61.2463 13.0465H55.2228C55.3772 14.222 55.995 14.9682 57.2166 14.9682C58.066 14.9682 58.761 14.581 59.2525 13.9756L60.8742 14.7992C60.13 15.9114 58.8172 16.6294 57.2446 16.6294C54.6962 16.6294 52.9973 14.9259 52.9973 12.3566C52.9973 9.72396 54.6471 7.97119 57.1534 7.97119C59.6386 7.97119 61.3094 9.64653 61.3094 12.1666C61.3094 12.4552 61.2814 12.7931 61.2463 13.0465ZM55.2228 11.6175H59.098C58.9436 10.3504 58.2766 9.61837 57.1534 9.61837C56.0442 9.61837 55.3913 10.3504 55.2228 11.6175Z" fill="white"/>
<path d="M62.4397 12.2862C62.4397 9.7028 64.2299 7.96411 66.9187 7.96411C68.0279 7.96411 69.0038 8.32311 69.776 8.92144L68.5825 10.3504C68.1473 9.97733 67.6418 9.75911 66.9468 9.75911C65.5567 9.75911 64.616 10.7657 64.616 12.2862C64.616 13.8067 65.5427 14.8133 66.9608 14.8133C67.7331 14.8133 68.3649 14.581 68.8423 14.0671L70.0287 15.4609C69.2425 16.2493 68.1122 16.6224 66.8625 16.6224C64.2159 16.6224 62.4397 14.8837 62.4397 12.2862Z" fill="white"/>
<path d="M79.471 11.2162V16.4675H77.3719V11.5611C77.3719 10.4771 76.5997 9.76615 75.4273 9.76615C74.2549 9.76615 73.4826 10.4771 73.4826 11.5611V16.4675H71.3835V4.38818H73.4826V9.12558C74.1145 8.35126 75.0763 7.96411 76.1574 7.96411C78.1442 7.96411 79.471 9.26636 79.471 11.2162Z" fill="white"/>
<path d="M89.2787 13.0465H83.2552C83.4097 14.222 84.0275 14.9682 85.249 14.9682C86.0985 14.9682 86.7935 14.581 87.285 13.9756L88.9067 14.7992C88.1625 15.9114 86.8497 16.6294 85.2771 16.6294C82.7287 16.6294 81.0298 14.9259 81.0298 12.3566C81.0298 9.72396 82.6796 7.97119 85.1859 7.97119C87.6711 7.97119 89.3419 9.64653 89.3419 12.1666C89.3419 12.4552 89.3138 12.7931 89.2787 13.0465ZM83.2552 11.6175H87.1305C86.976 10.3504 86.3091 9.61837 85.1859 9.61837C84.0766 9.61837 83.4237 10.3504 83.2552 11.6175Z" fill="white"/>
<path d="M90.4722 12.2862C90.4722 9.7028 92.2624 7.96411 94.9512 7.96411C96.0604 7.96411 97.0362 8.32311 97.8085 8.92144L96.622 10.3434C96.1868 9.97029 95.6813 9.75207 94.9863 9.75207C93.5962 9.75207 92.6555 10.7587 92.6555 12.2792C92.6555 13.7996 93.5822 14.8062 95.0003 14.8062C95.7726 14.8062 96.4044 14.5739 96.8818 14.0601L98.0682 15.4538C97.2819 16.2422 96.1517 16.6153 94.902 16.6153C92.2483 16.6223 90.4722 14.8837 90.4722 12.2862Z" fill="white"/>
<path d="M102.224 12.9479H101.515V16.4604H99.4092V4.38818H101.508V11.2162H102.231L104.983 8.11897H107.637L103.944 12.068L107.834 16.4675H105.18L102.224 12.9479Z" fill="white"/>
<path d="M116.075 13.0465H110.052C110.206 14.222 110.824 14.9682 112.046 14.9682C112.895 14.9682 113.59 14.581 114.082 13.9756L115.703 14.7992C114.959 15.9114 113.646 16.6294 112.074 16.6294C109.525 16.6294 107.826 14.9259 107.826 12.3566C107.826 9.72396 109.476 7.97119 111.982 7.97119C114.468 7.97119 116.139 9.64653 116.139 12.1666C116.139 12.4552 116.11 12.7931 116.075 13.0465ZM110.052 11.6175H113.927C113.773 10.3504 113.106 9.61837 111.982 9.61837C110.873 9.61837 110.22 10.3504 110.052 11.6175Z" fill="white"/>
<path d="M122.857 7.96411L122.717 9.8999C120.99 9.8999 119.845 10.7376 119.845 11.9905V16.4675H117.746V8.11897H119.768L119.796 9.23117C120.463 8.41462 121.516 7.96411 122.857 7.96411Z" fill="white"/>
</svg>
